Coordinates
version=1
nRows=43
nColumns=12
inDegrees=yes

Units are S.I. units (second, meters, Newtons, ...)
Angles are in degrees

endheader
time	SC_y	SC_z	SC_x	AC_y	AC_z	AC_x	GH_y	GH_z	GH_yy	EL_x	PS_y
       0.0               -49.0          4.469           8.47          58.35         -12.61         -12.68         -22.96          51.89          113.9          92.61          36.53
   0.03212               -49.0          4.469           8.48          58.35         -12.61         -12.67         -22.95          51.88          113.9           92.6          36.54
   0.06424               -49.0          4.469          8.491          58.35         -12.61         -12.67         -22.93          51.87          113.8          92.59          36.55
   0.09636              -49.01           4.47          8.502          58.35         -12.61         -12.66         -22.91          51.87          113.8          92.58          36.56
    0.1285              -49.01           4.47          8.514          58.35         -12.61         -12.66         -22.89          51.86          113.8          92.57          36.57
    0.1606              -49.01           4.47          8.526          58.35         -12.61         -12.65         -22.87          51.85          113.7          92.56          36.58
    0.1927              -49.01          4.471           8.54          58.35         -12.61         -12.65         -22.84          51.84          113.7          92.54          36.59
    0.2248              -49.01          4.471          8.554          58.35          -12.6         -12.64         -22.82          51.83          113.6          92.53          36.61
     0.257              -49.01          4.472           8.57          58.35          -12.6         -12.63         -22.79          51.82          113.6          92.51          36.62
    0.2891              -49.01          4.472          8.587          58.35          -12.6         -12.63         -22.76          51.81          113.5           92.5          36.64
    0.3212              -49.01          4.472          8.604          58.35          -12.6         -12.62         -22.73           51.8          113.5          92.48          36.66
    0.3533              -49.01          4.473          8.624          58.35          -12.6         -12.61          -22.7          51.79          113.4          92.46          36.67
    0.3855              -49.02          4.473          8.644          58.36          -12.6          -12.6         -22.67          51.77          113.3          92.44          36.69
    0.4176              -49.02          4.474          8.667          58.36         -12.59         -12.59         -22.63          51.76          113.3          92.42          36.72
    0.4497              -49.02          4.475          8.691          58.36         -12.59         -12.58         -22.59          51.74          113.2           92.4          36.74
    0.4818              -49.02          4.475          8.717          58.36         -12.59         -12.57         -22.54          51.73          113.1          92.37          36.77
    0.5139              -49.02          4.476          8.746          58.36         -12.58         -12.56          -22.5          51.71          113.0          92.34          36.79
    0.5461              -49.02          4.477          8.777          58.36         -12.58         -12.54         -22.44          51.69          112.9          92.31          36.82
    0.5782              -49.03          4.478          8.811          58.36         -12.58         -12.53         -22.38          51.67          112.8          92.28          36.86
    0.6103              -49.03          4.479          8.848          58.36         -12.57         -12.51         -22.32          51.64          112.7          92.24          36.89
    0.6424              -49.03           4.48          8.889          58.36         -12.57          -12.5         -22.25          51.62          112.6           92.2          36.93
    0.6745              -49.04          4.481          8.934          58.37         -12.57         -12.48         -22.18          51.59          112.4          92.16          36.98
    0.7067              -49.04          4.482          8.983          58.37         -12.56         -12.45         -22.09          51.56          112.3          92.11          37.02
    0.7388              -49.04          4.484          9.038          58.37         -12.56         -12.43          -22.0          51.52          112.1          92.06          37.08
    0.7709              -49.05          4.485          9.099          58.37         -12.55          -12.4          -21.9          51.48          111.9           92.0          37.14
     0.803              -49.05          4.487          9.168          58.38         -12.54         -12.37         -21.78          51.44          111.7          91.93           37.2
    0.8352              -49.06          4.489          9.244          58.38         -12.53         -12.34         -21.65          51.39          111.4          91.85          37.28
    0.8673              -49.06          4.491           9.33          58.38         -12.53          -12.3         -21.51          51.34          111.1          91.77          37.36
    0.8994              -49.07          4.494          9.427          58.39         -12.52         -12.26         -21.34          51.27          110.8          91.67          37.45
    0.9315              -49.08          4.497          9.537          58.39          -12.5         -12.21         -21.15           51.2          110.5          91.57          37.56
    0.9636              -49.09            4.5          9.663           58.4         -12.49         -12.16         -20.94          51.12          110.1          91.44          37.68
    0.9958               -49.1          4.504          9.808           58.4         -12.48          -12.1          -20.7          51.03          109.6           91.3          37.82
     1.028              -49.11          4.508          9.974          58.41         -12.46         -12.02         -20.41          50.92          109.1          91.14          37.98
      1.06              -49.12          4.513          10.17          58.42         -12.44         -11.94         -20.09           50.8          108.5          90.95          38.17
     1.092              -49.14          4.519          10.39          58.42         -12.42         -11.84          -19.7          50.65          107.7          90.72          38.39
     1.124              -49.15          4.526          10.66          58.44         -12.39         -11.73         -19.25          50.48          106.9          90.46          38.65
     1.156              -49.18          4.535          10.98          58.45         -12.36         -11.59         -18.71          50.28          105.9          90.15          38.96
     1.188               -49.2          4.545          11.36          58.46         -12.32         -11.42         -18.07          50.04          104.6          89.78          39.33
     1.221              -49.23          4.557          11.82          58.48         -12.27         -11.22         -17.29          49.74          103.2          89.32          39.78
     1.253              -49.27          4.571          12.38           58.5         -12.21         -10.98         -16.33          49.38          101.4          88.77          40.32
     1.285              -49.32           4.59          13.08          58.53         -12.14         -10.68         -15.16          48.94          99.15          88.09           41.0
     1.317              -49.38          4.612          13.94          58.57         -12.05          -10.3         -13.69          48.38          96.38          87.24          41.84
     1.349              -49.45          4.641          15.03          58.61         -11.94         -9.832         -11.84          47.68          92.89          86.17          42.89
